<svg width="80" height="36" viewBox="0 0 80 36" fill="none" xmlns="http://www.w3.org/2000/svg">
<path d="M67.35 11.88C64.32 24.09 53.23 33.74 39.69 33.74C26.68 33.73 15.64 24.49 12.03 11.88H0C2.32 25.26 19.36 36.01 39.74 36C60.25 36.01 77.39 24.9 79.48 11.88H67.34H67.35Z" fill="black"/>
<path d="M42.3 24.24C42.3 25.75 41.11 26.85 39.64 26.85C38.17 26.85 37.21 25.75 37.21 24.24V0H26.13C26.14 15.95 28.48 28.87 39.7 28.87C50.92 28.87 53.26 15.95 53.27 0H42.3V24.24Z" fill="black"/>
<path d="M66.38 5.95C66.07 21.53 52.96 32.32 39.61 32.32C25.61 32.32 13.35 20.67 12.84 5.95H24.65C24.63 6.41 24.64 6.88 24.69 7.34C25.95 24 30.79 30.01 39.55 30.13C49.32 29.98 53.71 22.89 54.6 7.34C54.63 6.87 54.65 6.41 54.64 5.95H66.38Z" fill="black"/>
</svg>
