<svg width="263" height="36" viewBox="0 0 263 36" fill="none" xmlns="http://www.w3.org/2000/svg">
<path d="M67.35 11.88C64.32 24.09 53.23 33.74 39.69 33.74C26.68 33.73 15.64 24.49 12.03 11.88H0C2.32 25.26 19.36 36.01 39.74 36C60.25 36.01 77.39 24.9 79.48 11.88H67.34H67.35Z" fill="white"/>
<path d="M42.3 24.24C42.3 25.75 41.11 26.85 39.64 26.85C38.17 26.85 37.21 25.75 37.21 24.24V0H26.13C26.14 15.95 28.48 28.87 39.7 28.87C50.92 28.87 53.26 15.95 53.27 0H42.3V24.24Z" fill="white"/>
<path d="M66.38 5.95C66.07 21.53 52.96 32.32 39.61 32.32C25.61 32.32 13.35 20.67 12.84 5.95H24.65C24.63 6.41 24.64 6.88 24.69 7.34C25.95 24 30.79 30.01 39.55 30.13C49.32 29.98 53.71 22.89 54.6 7.34C54.63 6.87 54.65 6.41 54.64 5.95H66.38Z" fill="white"/>
<path d="M94.41 12.61C94.41 13.95 94.05 14.96 93.33 15.63C92.61 16.3 91.53 16.64 90.1 16.64C88.67 16.64 87.67 16.34 86.99 15.73C86.3 15.12 85.96 14.2 85.96 12.96V8.93C85.96 8.55 85.87 8.28 85.69 8.12C85.51 7.95 85.21 7.87 84.79 7.87H84.64V7.24H89.3V7.87H89.15C88.74 7.87 88.44 7.95 88.26 8.12C88.08 8.29 87.99 8.56 87.99 8.93V12.57C87.99 13.2 88.03 13.67 88.1 13.98C88.17 14.29 88.29 14.54 88.46 14.75C88.68 15.02 88.98 15.24 89.36 15.39C89.75 15.54 90.18 15.62 90.66 15.62C91.58 15.62 92.28 15.36 92.76 14.85C93.24 14.34 93.48 13.59 93.48 12.61V8.93C93.48 8.55 93.39 8.28 93.21 8.12C93.03 7.95 92.73 7.87 92.32 7.87H92.16V7.24H95.7V7.87H95.55C95.14 7.87 94.85 7.95 94.67 8.12C94.49 8.29 94.4 8.56 94.4 8.93V12.61H94.41Z" fill="white"/>
<path d="M99.73 14.75C99.73 15.13 99.82 15.4 100 15.56C100.18 15.73 100.48 15.81 100.89 15.81H101.05V16.44H97.41V15.81H97.56C97.97 15.81 98.27 15.73 98.45 15.56C98.63 15.39 98.73 15.12 98.73 14.75V8.15C98.58 8.05 98.44 7.98 98.3 7.93C98.15 7.88 98 7.86 97.84 7.86C97.83 7.86 97.8 7.86 97.77 7.86C97.74 7.86 97.71 7.86 97.7 7.86C97.68 7.86 97.66 7.86 97.65 7.86C97.64 7.86 97.63 7.86 97.62 7.85V7.22H100.61L106.57 13.37V8.92C106.57 8.54 106.48 8.27 106.3 8.11C106.12 7.94 105.82 7.86 105.41 7.86H105.25V7.23H108.91V7.86H108.76C108.34 7.86 108.04 7.94 107.86 8.11C107.68 8.28 107.59 8.55 107.59 8.92V16.49H106.72L99.73 9.28V14.75Z" fill="white"/>
<path d="M113.6 14.75C113.6 15.13 113.69 15.4 113.88 15.56C114.06 15.73 114.36 15.81 114.77 15.81H114.92V16.44H110.22V15.81H110.38C110.79 15.81 111.09 15.73 111.27 15.56C111.45 15.39 111.54 15.12 111.54 14.75V8.92C111.54 8.55 111.45 8.28 111.26 8.11C111.08 7.94 110.78 7.86 110.38 7.86H110.22V7.23H114.92V7.86H114.77C114.36 7.86 114.06 7.94 113.88 8.11C113.7 8.28 113.6 8.55 113.6 8.92V14.75Z" fill="white"/>
<path d="M120.39 16.61L117.06 9.22C117.06 9.22 117.05 9.19 117.03 9.16C116.78 8.6 116.54 8.24 116.3 8.1C116.2 8.04 116.08 7.99 115.93 7.95C115.78 7.91 115.61 7.88 115.43 7.87V7.24H120.51V7.87C119.97 7.87 119.6 7.93 119.41 8.03C119.21 8.13 119.12 8.3 119.12 8.54C119.12 8.59 119.13 8.66 119.16 8.75C119.19 8.84 119.22 8.94 119.27 9.05L121.5 14.04L123.57 9.21C123.66 9 123.71 8.84 123.75 8.73C123.78 8.61 123.8 8.51 123.8 8.41C123.8 8.23 123.71 8.09 123.54 8.01C123.37 7.93 123.03 7.88 122.53 7.86V7.23H126.22V7.86C125.82 7.89 125.52 7.98 125.31 8.13C125.1 8.28 124.87 8.64 124.62 9.21L121.41 16.6H120.4L120.39 16.61Z" fill="white"/>
<path d="M126.5 16.45V15.82H126.66C127.07 15.82 127.37 15.74 127.55 15.57C127.73 15.4 127.82 15.13 127.82 14.76V8.92C127.82 8.55 127.73 8.28 127.55 8.11C127.37 7.95 127.07 7.86 126.66 7.86H126.5V7.23H134.47L134.58 9.38H134.03C133.97 8.84 133.85 8.49 133.68 8.33C133.51 8.17 133.14 8.09 132.57 8.09H129.87V11.38H132.02C132.46 11.38 132.77 11.3 132.97 11.14C133.16 10.98 133.26 10.72 133.26 10.36V10.27H133.85V13.31H133.26V13.23C133.26 12.86 133.16 12.6 132.97 12.44C132.78 12.28 132.46 12.2 132.02 12.2H129.87V14.64C129.87 15.03 129.91 15.28 130 15.38C130.09 15.48 130.27 15.53 130.55 15.53H132.51C133.16 15.53 133.62 15.43 133.88 15.22C134.15 15.01 134.32 14.63 134.41 14.08H135.02L134.83 16.46H126.48L126.5 16.45Z" fill="white"/>
<path d="M140.21 7.82V11.78C140.5 11.82 140.71 11.84 140.85 11.85C140.99 11.86 141.11 11.87 141.21 11.87C141.94 11.87 142.5 11.7 142.88 11.35C143.26 11 143.45 10.5 143.45 9.83C143.45 9.16 143.26 8.64 142.88 8.27C142.5 7.9 141.96 7.72 141.27 7.72C141.17 7.72 141.05 7.72 140.92 7.74C140.78 7.75 140.55 7.78 140.21 7.82ZM140.21 14.75C140.21 15.13 140.3 15.4 140.48 15.57C140.66 15.74 140.95 15.82 141.36 15.82H141.51V16.45H136.81V15.82H136.97C137.38 15.82 137.68 15.74 137.86 15.57C138.04 15.4 138.13 15.13 138.13 14.75V8.92C138.13 8.54 138.04 8.27 137.86 8.11C137.68 7.94 137.38 7.86 136.97 7.86H136.81V7.23C136.94 7.23 137.14 7.22 137.4 7.2C139.37 7.11 140.68 7.07 141.31 7.07C142.77 7.07 143.87 7.29 144.59 7.73C145.31 8.17 145.68 8.84 145.68 9.73C145.68 10.38 145.48 10.91 145.08 11.33C144.68 11.75 144.09 12.03 143.33 12.17C143.66 12.39 144.07 12.97 144.58 13.91C144.73 14.19 144.85 14.41 144.93 14.56C145.22 15.07 145.48 15.41 145.72 15.59C145.96 15.77 146.27 15.88 146.64 15.92V16.52C146.45 16.53 146.27 16.54 146.1 16.55C145.93 16.55 145.77 16.55 145.61 16.55C145.08 16.55 144.64 16.49 144.3 16.37C143.96 16.25 143.65 16.06 143.38 15.78C143.22 15.61 142.93 15.15 142.5 14.39C142.07 13.63 141.69 13 141.37 12.51H140.24V14.73L140.21 14.75Z" fill="white"/>
<path d="M147.77 13.7H148.38C148.59 14.42 148.93 14.97 149.37 15.37C149.82 15.76 150.34 15.96 150.94 15.96C151.41 15.96 151.79 15.83 152.08 15.56C152.37 15.3 152.51 14.95 152.51 14.52C152.51 13.86 151.81 13.15 150.42 12.38C150.18 12.25 150 12.15 149.87 12.08C149.16 11.68 148.65 11.28 148.34 10.89C148.03 10.5 147.88 10.05 147.88 9.56C147.88 8.83 148.15 8.23 148.68 7.77C149.21 7.31 149.9 7.08 150.75 7.08C151.2 7.08 151.68 7.14 152.18 7.25C152.68 7.36 152.95 7.42 153.01 7.42C153.09 7.42 153.16 7.41 153.23 7.38C153.3 7.36 153.36 7.32 153.42 7.28L153.66 7.31L153.91 9.72H153.34C153.14 9.11 152.83 8.63 152.42 8.28C152 7.93 151.53 7.76 150.99 7.76C150.57 7.76 150.23 7.86 149.97 8.05C149.72 8.24 149.59 8.5 149.59 8.82C149.59 8.97 149.62 9.11 149.68 9.25C149.74 9.39 149.82 9.51 149.94 9.62C150.21 9.88 150.71 10.21 151.46 10.6C151.85 10.81 152.15 10.98 152.34 11.09C153.1 11.55 153.63 11.99 153.95 12.42C154.26 12.85 154.42 13.34 154.42 13.9C154.42 14.67 154.12 15.32 153.53 15.84C152.94 16.36 152.2 16.62 151.31 16.62C150.99 16.62 150.62 16.59 150.2 16.52C149.78 16.45 149.32 16.35 148.81 16.21L148.64 16.39L148.15 16.42L147.79 13.71L147.77 13.7Z" fill="white"/>
<path d="M159.4 14.75C159.4 15.13 159.49 15.4 159.68 15.56C159.86 15.73 160.16 15.81 160.57 15.81H160.72V16.44H156.02V15.81H156.18C156.59 15.81 156.89 15.73 157.07 15.56C157.25 15.39 157.34 15.12 157.34 14.75V8.92C157.34 8.55 157.25 8.28 157.06 8.11C156.88 7.94 156.58 7.86 156.18 7.86H156.02V7.23H160.72V7.86H160.57C160.16 7.86 159.86 7.94 159.68 8.11C159.5 8.28 159.4 8.55 159.4 8.92V14.75Z" fill="white"/>
<path d="M165.94 8.02H164.49C164.14 8.02 163.87 8.04 163.67 8.09C163.47 8.13 163.32 8.21 163.21 8.31C163.14 8.38 163.07 8.51 162.99 8.71C162.92 8.9 162.81 9.26 162.68 9.79H162.07L162.33 7.02H162.8L163.16 7.22H170.77L171.13 7.02H171.6L171.86 9.77H171.25C171.12 9.26 171.01 8.9 170.94 8.7C170.87 8.51 170.79 8.37 170.72 8.3C170.61 8.2 170.46 8.12 170.26 8.08C170.06 8.04 169.79 8.01 169.44 8.01H167.99V14.74C167.99 15.12 168.08 15.39 168.27 15.56C168.45 15.73 168.75 15.81 169.16 15.81H169.31V16.44H164.61V15.81H164.77C165.18 15.81 165.48 15.73 165.66 15.56C165.84 15.39 165.93 15.12 165.93 14.74V8.01L165.94 8.02Z" fill="white"/>
<path d="M173.28 16.45V15.82H173.44C173.85 15.82 174.15 15.74 174.33 15.57C174.51 15.4 174.6 15.13 174.6 14.76V8.92C174.6 8.55 174.51 8.28 174.33 8.11C174.15 7.95 173.85 7.86 173.44 7.86H173.28V7.23H181.25L181.37 9.38H180.82C180.76 8.84 180.64 8.49 180.47 8.33C180.3 8.17 179.93 8.09 179.35 8.09H176.65V11.38H178.8C179.24 11.38 179.55 11.3 179.75 11.14C179.94 10.98 180.04 10.72 180.04 10.36V10.27H180.63V13.31H180.04V13.23C180.04 12.86 179.94 12.6 179.75 12.44C179.56 12.28 179.24 12.2 178.8 12.2H176.65V14.64C176.65 15.03 176.69 15.28 176.78 15.38C176.87 15.48 177.05 15.53 177.33 15.53H179.29C179.94 15.53 180.4 15.43 180.66 15.22C180.93 15.01 181.1 14.63 181.19 14.08H181.8L181.61 16.46H173.26L173.28 16.45Z" fill="white"/>
<path d="M191.7 7.77H190.73V14.69C190.73 15.11 190.84 15.41 191.07 15.58C191.3 15.75 191.69 15.84 192.24 15.84C193.43 15.84 194.37 15.47 195.06 14.74C195.75 14 196.1 13.01 196.1 11.75C196.1 10.49 195.71 9.54 194.94 8.83C194.17 8.12 193.09 7.77 191.7 7.77ZM187.35 15.82H187.51C187.92 15.82 188.22 15.74 188.4 15.57C188.58 15.4 188.67 15.13 188.67 14.76V8.99C188.67 8.61 188.58 8.34 188.4 8.18C188.22 8.01 187.92 7.93 187.51 7.93H187.35V7.27C188.3 7.2 189.14 7.15 189.89 7.12C190.63 7.09 191.29 7.07 191.87 7.07C192.99 7.07 193.92 7.15 194.67 7.31C195.41 7.47 196.03 7.73 196.53 8.08C197.1 8.47 197.54 8.98 197.84 9.6C198.15 10.22 198.31 10.9 198.31 11.64C198.31 12.38 198.15 13.07 197.84 13.69C197.53 14.31 197.07 14.86 196.46 15.32C195.93 15.72 195.34 16.02 194.69 16.19C194.05 16.37 193.22 16.46 192.2 16.46H187.35V15.82Z" fill="white"/>
<path d="M199.86 16.45V15.82H200.01C200.42 15.82 200.72 15.74 200.9 15.57C201.08 15.4 201.17 15.13 201.17 14.76V8.92C201.17 8.55 201.08 8.28 200.9 8.11C200.72 7.95 200.42 7.86 200.01 7.86H199.86V7.23H207.83L207.95 9.38H207.4C207.34 8.84 207.22 8.49 207.05 8.33C206.88 8.17 206.51 8.09 205.93 8.09H203.23V11.38H205.38C205.82 11.38 206.13 11.3 206.33 11.14C206.52 10.98 206.62 10.72 206.62 10.36V10.27H207.21V13.31H206.62V13.23C206.62 12.86 206.52 12.6 206.33 12.44C206.14 12.28 205.82 12.2 205.38 12.2H203.23V14.64C203.23 15.03 203.27 15.28 203.36 15.38C203.45 15.48 203.63 15.53 203.91 15.53H205.87C206.52 15.53 206.98 15.43 207.24 15.22C207.51 15.01 207.68 14.63 207.77 14.08H208.38L208.19 16.46H199.84L199.86 16.45Z" fill="white"/>
<path d="M217.4 7.82V11.78C217.69 11.82 217.9 11.84 218.04 11.85C218.18 11.86 218.3 11.87 218.4 11.87C219.13 11.87 219.69 11.7 220.07 11.35C220.45 11 220.64 10.5 220.64 9.83C220.64 9.16 220.45 8.64 220.07 8.27C219.69 7.9 219.15 7.72 218.46 7.72C218.36 7.72 218.24 7.72 218.11 7.74C217.97 7.75 217.74 7.78 217.4 7.82ZM217.4 14.75C217.4 15.13 217.49 15.4 217.67 15.57C217.85 15.74 218.14 15.82 218.55 15.82H218.7V16.45H214V15.82H214.16C214.57 15.82 214.87 15.74 215.05 15.57C215.23 15.4 215.32 15.13 215.32 14.75V8.92C215.32 8.54 215.23 8.27 215.05 8.11C214.87 7.94 214.57 7.86 214.16 7.86H214V7.23C214.13 7.23 214.33 7.22 214.59 7.2C216.56 7.11 217.87 7.07 218.5 7.07C219.96 7.07 221.06 7.29 221.78 7.73C222.5 8.17 222.87 8.84 222.87 9.73C222.87 10.38 222.67 10.91 222.27 11.33C221.87 11.75 221.28 12.03 220.52 12.17C220.85 12.39 221.26 12.97 221.76 13.91C221.91 14.19 222.03 14.41 222.11 14.56C222.4 15.07 222.66 15.41 222.9 15.59C223.14 15.77 223.45 15.88 223.82 15.92V16.52C223.63 16.53 223.45 16.54 223.28 16.55C223.11 16.55 222.95 16.55 222.79 16.55C222.26 16.55 221.82 16.49 221.48 16.37C221.14 16.25 220.83 16.06 220.56 15.78C220.4 15.61 220.11 15.15 219.67 14.39C219.24 13.63 218.86 13 218.54 12.51H217.41V14.73L217.4 14.75Z" fill="white"/>
<path d="M224.63 16.45V15.82H224.79C225.2 15.82 225.5 15.74 225.68 15.57C225.86 15.4 225.95 15.13 225.95 14.76V8.92C225.95 8.55 225.86 8.28 225.68 8.11C225.5 7.95 225.2 7.86 224.79 7.86H224.63V7.23H232.6L232.72 9.38H232.17C232.11 8.84 231.99 8.49 231.82 8.33C231.65 8.17 231.28 8.09 230.71 8.09H228.01V11.38H230.16C230.6 11.38 230.91 11.3 231.11 11.14C231.31 10.98 231.4 10.72 231.4 10.36V10.27H231.99V13.31H231.4V13.23C231.4 12.86 231.3 12.6 231.11 12.44C230.92 12.28 230.6 12.2 230.16 12.2H228.01V14.64C228.01 15.03 228.05 15.28 228.14 15.38C228.23 15.48 228.41 15.53 228.69 15.53H230.65C231.3 15.53 231.76 15.43 232.02 15.22C232.29 15.01 232.46 14.63 232.55 14.08H233.16L232.97 16.46H224.62L224.63 16.45Z" fill="white"/>
<path d="M238.18 14.75C238.18 15.13 238.27 15.4 238.46 15.56C238.64 15.73 238.94 15.81 239.35 15.81H239.5V16.44H234.8V15.81H234.96C235.37 15.81 235.66 15.73 235.85 15.56C236.03 15.39 236.12 15.12 236.12 14.75V8.92C236.12 8.55 236.03 8.28 235.84 8.11C235.66 7.94 235.36 7.86 234.96 7.86H234.8V7.23H239.5V7.86H239.35C238.94 7.86 238.64 7.94 238.46 8.11C238.28 8.28 238.18 8.55 238.18 8.92V14.75Z" fill="white"/>
<path d="M240.76 16.45V15.82C241.23 15.8 241.54 15.71 241.7 15.56C241.86 15.4 241.97 15.04 242.02 14.47L242.44 8.95C242.44 8.95 242.44 8.87 242.45 8.83V8.64C242.45 8.35 242.38 8.16 242.23 8.06C242.08 7.96 241.79 7.89 241.34 7.87V7.24H244.52L247.3 13.54L250.13 7.24H253.2V7.87C252.79 7.9 252.52 7.96 252.38 8.07C252.24 8.18 252.17 8.39 252.17 8.71V8.97L252.49 14.76C252.51 15.2 252.59 15.48 252.74 15.61C252.89 15.74 253.21 15.81 253.68 15.82V16.45H249.1V15.82H249.32C249.75 15.82 250.05 15.75 250.21 15.61C250.37 15.47 250.45 15.22 250.45 14.85V14.68L250.19 9.09L246.88 16.45H246.48L243.23 9.29L242.84 14.43C242.84 14.43 242.84 14.53 242.84 14.58V14.79C242.84 15.17 242.92 15.44 243.08 15.59C243.24 15.74 243.52 15.82 243.92 15.82H244.01V16.45H240.73H240.76Z" fill="white"/>
<path d="M255.36 13.7H255.97C256.18 14.42 256.52 14.97 256.96 15.37C257.41 15.76 257.93 15.96 258.53 15.96C259 15.96 259.38 15.83 259.67 15.56C259.96 15.3 260.11 14.95 260.11 14.52C260.11 13.86 259.41 13.15 258.02 12.38C257.78 12.25 257.6 12.15 257.47 12.08C256.76 11.68 256.25 11.28 255.94 10.89C255.63 10.5 255.48 10.05 255.48 9.56C255.48 8.83 255.75 8.23 256.28 7.77C256.81 7.31 257.5 7.08 258.35 7.08C258.8 7.08 259.28 7.14 259.78 7.25C260.28 7.36 260.55 7.42 260.61 7.42C260.69 7.42 260.76 7.41 260.83 7.38C260.9 7.36 260.96 7.32 261.02 7.28L261.26 7.31L261.51 9.72H260.94C260.74 9.11 260.43 8.63 260.02 8.28C259.6 7.93 259.13 7.76 258.59 7.76C258.17 7.76 257.83 7.86 257.57 8.05C257.32 8.24 257.19 8.5 257.19 8.82C257.19 8.97 257.22 9.11 257.28 9.25C257.34 9.39 257.42 9.51 257.54 9.62C257.8 9.88 258.31 10.21 259.06 10.6C259.45 10.81 259.75 10.98 259.94 11.09C260.7 11.55 261.23 11.99 261.55 12.42C261.87 12.85 262.02 13.34 262.02 13.9C262.02 14.67 261.72 15.32 261.13 15.84C260.54 16.36 259.8 16.62 258.91 16.62C258.59 16.62 258.21 16.59 257.8 16.52C257.38 16.45 256.92 16.35 256.41 16.21L256.24 16.39L255.75 16.42L255.39 13.71L255.36 13.7Z" fill="white"/>
<path d="M92.86 27.29L92.17 29.52C92 29.49 91.84 29.47 91.69 29.46C91.54 29.45 91.42 29.44 91.31 29.44C91.22 29.44 90.94 29.47 90.49 29.54C90.04 29.61 89.63 29.64 89.27 29.64C88.64 29.64 88.06 29.55 87.54 29.37C87.01 29.19 86.54 28.91 86.13 28.55C85.71 28.18 85.38 27.75 85.15 27.26C84.92 26.77 84.8 26.26 84.8 25.74C84.8 25.15 84.94 24.58 85.22 24.04C85.5 23.5 85.9 23.02 86.41 22.61C86.81 22.3 87.29 22.05 87.83 21.88C88.37 21.7 88.94 21.62 89.51 21.62C90.04 21.62 90.57 21.7 91.11 21.86C91.65 22.02 91.92 22.1 91.94 22.1C91.99 22.1 92.05 22.1 92.1 22.07C92.15 22.05 92.21 22.03 92.26 22H92.45L92.56 24.22H92.08C91.83 23.56 91.5 23.07 91.09 22.75C90.68 22.43 90.17 22.27 89.57 22.27C88.75 22.27 88.07 22.59 87.52 23.22C86.97 23.86 86.7 24.66 86.7 25.63C86.7 26.03 86.76 26.42 86.88 26.79C87 27.16 87.18 27.5 87.41 27.79C87.74 28.2 88.09 28.5 88.48 28.71C88.87 28.92 89.29 29.02 89.75 29.02C90.29 29.02 90.77 28.87 91.19 28.58C91.61 28.29 91.98 27.84 92.3 27.25L92.85 27.27L92.86 27.29Z" fill="white"/>
<path d="M102.26 25.43V23.58C102.26 23.28 102.19 23.07 102.05 22.94C101.91 22.81 101.67 22.74 101.35 22.74H101.23V22.24H104.93V22.74H104.81C104.49 22.74 104.25 22.81 104.11 22.94C103.97 23.07 103.89 23.29 103.89 23.58V28.18C103.9 28.48 103.97 28.69 104.12 28.82C104.26 28.95 104.5 29.02 104.82 29.02H104.94V29.52H101.23V29.02H101.35C101.68 29.02 101.91 28.95 102.05 28.82C102.19 28.69 102.26 28.47 102.26 28.18V26.14H98.55V28.18C98.55 28.48 98.62 28.69 98.77 28.82C98.91 28.95 99.15 29.02 99.47 29.02H99.59V29.52H95.89V29.02H96.01C96.33 29.02 96.56 28.95 96.71 28.82C96.85 28.69 96.92 28.47 96.92 28.18V23.58C96.92 23.28 96.85 23.07 96.71 22.94C96.57 22.81 96.33 22.74 96.01 22.74H95.89V22.24H99.59V22.74H99.47C99.15 22.74 98.91 22.81 98.77 22.94C98.63 23.07 98.55 23.29 98.55 23.58V25.43H102.26Z" fill="white"/>
<path d="M109.87 25.93H112.01L110.93 23.05L109.87 25.93ZM106.91 29.51V28.97C107.27 28.97 107.54 28.92 107.72 28.81C107.89 28.71 108.03 28.52 108.13 28.26L110.22 22.62C110.3 22.41 110.35 22.25 110.38 22.16C110.4 22.07 110.42 21.99 110.42 21.92C110.42 21.87 110.42 21.82 110.4 21.78C110.39 21.74 110.37 21.69 110.35 21.64H112.18L114.65 28.02C114.78 28.36 114.94 28.6 115.11 28.73C115.28 28.86 115.53 28.93 115.86 28.95L115.84 29.51H111.79V28.95H112.05C112.4 28.95 112.64 28.91 112.76 28.84C112.89 28.77 112.95 28.63 112.95 28.43C112.95 28.38 112.95 28.33 112.93 28.29C112.93 28.25 112.91 28.19 112.88 28.14L112.29 26.63H109.62L109.13 27.98C109.13 27.98 109.11 28.03 109.1 28.06C109.03 28.26 109 28.4 109 28.49C109 28.66 109.09 28.78 109.27 28.85C109.45 28.92 109.76 28.96 110.2 28.96V29.5H106.93L106.91 29.51Z" fill="white"/>
<path d="M117.36 29.51V28.97C117.75 28.95 118.01 28.88 118.15 28.75C118.29 28.62 118.38 28.31 118.42 27.83L118.77 23.19C118.77 23.19 118.77 23.12 118.77 23.09V22.93C118.77 22.69 118.71 22.53 118.59 22.44C118.47 22.35 118.22 22.3 117.84 22.28V21.74H120.52L122.87 27.05L125.26 21.74H127.84V22.28C127.5 22.3 127.26 22.36 127.15 22.45C127.03 22.54 126.98 22.72 126.98 22.99V23.21L127.25 28.08C127.27 28.45 127.34 28.68 127.46 28.79C127.59 28.9 127.85 28.96 128.25 28.97V29.51H124.39V28.97H124.58C124.94 28.97 125.19 28.91 125.33 28.8C125.47 28.69 125.53 28.47 125.53 28.16V28.01L125.31 23.32L122.53 29.52H122.19L119.45 23.49L119.13 27.81C119.13 27.81 119.13 27.89 119.13 27.93V28.11C119.13 28.43 119.2 28.65 119.33 28.78C119.46 28.91 119.7 28.97 120.04 28.97H120.12V29.51H117.35H117.36Z" fill="white"/>
<path d="M133.59 22.25V25.71C133.75 25.74 133.89 25.76 134.03 25.77C134.17 25.78 134.3 25.79 134.42 25.79C135.01 25.79 135.45 25.64 135.76 25.33C136.07 25.02 136.22 24.58 136.22 23.99C136.22 23.4 136.07 22.95 135.76 22.64C135.45 22.33 135.01 22.17 134.44 22.17C134.33 22.17 134.21 22.17 134.07 22.19C133.93 22.2 133.77 22.22 133.59 22.25ZM133.59 28.08C133.59 28.4 133.67 28.62 133.81 28.76C133.96 28.9 134.21 28.97 134.55 28.97H134.68V29.51H130.73V28.97H130.86C131.21 28.97 131.46 28.9 131.61 28.76C131.76 28.62 131.84 28.39 131.84 28.08V23.19C131.84 22.88 131.76 22.65 131.61 22.51C131.46 22.37 131.21 22.3 130.86 22.3H130.73V21.76C131.11 21.74 131.63 21.72 132.28 21.7C133.31 21.65 133.99 21.63 134.34 21.63C134.97 21.63 135.48 21.66 135.87 21.73C136.26 21.8 136.59 21.91 136.88 22.07C137.26 22.28 137.56 22.55 137.77 22.9C137.98 23.25 138.08 23.63 138.08 24.05C138.08 24.73 137.81 25.29 137.27 25.73C136.73 26.17 136.03 26.39 135.17 26.39C134.98 26.39 134.77 26.39 134.52 26.36C134.27 26.34 133.97 26.31 133.6 26.27V28.08H133.59Z" fill="white"/>
<path d="M141.95 25.93H144.09L143.01 23.05L141.95 25.93ZM138.99 29.51V28.97C139.35 28.97 139.62 28.92 139.8 28.81C139.97 28.71 140.11 28.52 140.21 28.26L142.3 22.62C142.38 22.41 142.43 22.25 142.46 22.16C142.48 22.07 142.5 21.99 142.5 21.92C142.5 21.87 142.5 21.82 142.48 21.78C142.47 21.74 142.45 21.69 142.43 21.64H144.26L146.73 28.02C146.86 28.36 147.02 28.6 147.19 28.73C147.37 28.86 147.61 28.93 147.94 28.95L147.92 29.51H143.88V28.95H144.14C144.49 28.95 144.73 28.91 144.85 28.84C144.98 28.77 145.04 28.63 145.04 28.43C145.04 28.38 145.04 28.33 145.02 28.29C145.02 28.25 145 28.19 144.97 28.14L144.38 26.63H141.71L141.22 27.98C141.22 27.98 141.2 28.03 141.19 28.06C141.12 28.26 141.09 28.4 141.09 28.49C141.09 28.66 141.18 28.78 141.36 28.85C141.54 28.92 141.85 28.96 142.29 28.96V29.5H139.02L138.99 29.51Z" fill="white"/>
<path d="M155.82 27.22C155.82 26.9 155.74 26.67 155.58 26.53C155.42 26.39 155.15 26.32 154.77 26.32C154.68 26.32 154.62 26.32 154.57 26.32C154.52 26.32 154.48 26.32 154.44 26.32V25.78H158.46V26.32C158.14 26.34 157.92 26.41 157.78 26.55C157.64 26.69 157.57 26.91 157.57 27.21V28.93C157.02 29.17 156.46 29.35 155.89 29.47C155.32 29.59 154.74 29.66 154.17 29.66C153.5 29.66 152.92 29.58 152.41 29.41C151.9 29.25 151.45 28.99 151.04 28.64C150.6 28.27 150.26 27.83 150.04 27.34C149.82 26.85 149.71 26.3 149.71 25.69C149.71 25.08 149.83 24.56 150.07 24.03C150.31 23.51 150.66 23.05 151.12 22.66C151.51 22.32 151.96 22.06 152.47 21.88C152.98 21.71 153.54 21.62 154.16 21.62C154.6 21.62 155.04 21.65 155.49 21.72C155.94 21.79 156.39 21.89 156.86 22.03L157.38 21.89H157.6V24.16H157.1C156.86 23.47 156.52 22.96 156.09 22.61C155.66 22.26 155.13 22.09 154.52 22.09C153.66 22.09 152.96 22.39 152.43 23.01C151.9 23.62 151.63 24.43 151.63 25.44C151.63 26.54 151.9 27.42 152.44 28.07C152.98 28.72 153.69 29.05 154.59 29.05C154.82 29.05 155.04 29.03 155.25 28.98C155.46 28.93 155.66 28.86 155.84 28.77V27.19L155.82 27.22Z" fill="white"/>
<path d="M162.73 28.07C162.73 28.39 162.81 28.62 162.96 28.75C163.11 28.89 163.36 28.96 163.71 28.96H163.84V29.5H160.77V28.96H160.9C161.25 28.96 161.49 28.89 161.65 28.75C161.8 28.61 161.88 28.38 161.88 28.07V22.52C161.76 22.44 161.64 22.38 161.52 22.34C161.4 22.3 161.27 22.28 161.14 22.28H160.95V21.74H163.47L168.49 26.92V23.18C168.49 22.86 168.41 22.64 168.26 22.5C168.11 22.36 167.86 22.29 167.51 22.29H167.38V21.75H170.47V22.29H170.34C169.99 22.29 169.74 22.36 169.58 22.5C169.43 22.64 169.35 22.87 169.35 23.18V29.56H168.61L162.71 23.48V28.08L162.73 28.07Z" fill="white"/>
<path d="M172.66 29.51V28.97H172.79C173.13 28.97 173.39 28.9 173.54 28.76C173.69 28.62 173.77 28.4 173.77 28.09V23.16C173.77 22.85 173.69 22.62 173.54 22.49C173.39 22.35 173.13 22.28 172.79 22.28H172.66V21.74H179.38L179.48 23.55H179.03C178.98 23.1 178.88 22.8 178.74 22.67C178.6 22.53 178.28 22.47 177.79 22.47H175.51V25.24H177.33C177.7 25.24 177.97 25.17 178.13 25.04C178.29 24.91 178.38 24.69 178.38 24.39V24.32H178.88V26.86H178.38V26.79C178.38 26.48 178.3 26.26 178.13 26.13C177.97 26 177.7 25.93 177.33 25.93H175.51V28.01C175.51 28.34 175.55 28.55 175.62 28.63C175.7 28.71 175.85 28.76 176.08 28.76H177.74C178.29 28.76 178.67 28.67 178.9 28.49C179.12 28.31 179.27 27.99 179.35 27.53H179.87L179.71 29.52H172.67L172.66 29.51Z" fill="white"/>
<path d="M191.18 25.93H193.32L192.24 23.05L191.18 25.93ZM188.22 29.51V28.97C188.58 28.97 188.85 28.92 189.03 28.81C189.2 28.71 189.34 28.52 189.44 28.26L191.53 22.62C191.61 22.41 191.66 22.25 191.69 22.16C191.71 22.07 191.73 21.99 191.73 21.92C191.73 21.87 191.73 21.82 191.71 21.78C191.7 21.74 191.68 21.69 191.66 21.64H193.49L195.96 28.02C196.09 28.36 196.25 28.6 196.42 28.73C196.6 28.86 196.84 28.93 197.17 28.95L197.15 29.51H193.11V28.95H193.37C193.72 28.95 193.96 28.91 194.08 28.84C194.21 28.77 194.27 28.63 194.27 28.43C194.27 28.38 194.27 28.33 194.25 28.29C194.25 28.25 194.23 28.19 194.2 28.14L193.61 26.63H190.94L190.45 27.98C190.45 27.98 190.43 28.03 190.42 28.06C190.35 28.26 190.32 28.4 190.32 28.49C190.32 28.66 190.41 28.78 190.59 28.85C190.77 28.92 191.08 28.96 191.52 28.96V29.5H188.25L188.22 29.51Z" fill="white"/>
<path d="M201.96 22.26V25.58C202.2 25.61 202.38 25.63 202.5 25.64C202.62 25.65 202.72 25.66 202.8 25.66C203.42 25.66 203.89 25.51 204.21 25.22C204.53 24.93 204.7 24.5 204.7 23.94C204.7 23.38 204.54 22.94 204.22 22.63C203.9 22.32 203.44 22.17 202.85 22.17C202.77 22.17 202.67 22.17 202.55 22.19C202.43 22.2 202.23 22.23 201.95 22.27L201.96 22.26ZM201.96 28.08C201.96 28.4 202.03 28.62 202.18 28.76C202.33 28.9 202.58 28.97 202.92 28.97H203.04V29.51H199.09V28.97H199.22C199.56 28.97 199.82 28.9 199.97 28.76C200.13 28.62 200.2 28.4 200.2 28.08V23.19C200.2 22.88 200.12 22.65 199.97 22.51C199.82 22.37 199.56 22.3 199.22 22.3H199.09V21.76C199.2 21.76 199.37 21.75 199.59 21.74C201.26 21.67 202.35 21.63 202.89 21.63C204.12 21.63 205.05 21.82 205.66 22.19C206.27 22.56 206.58 23.12 206.58 23.87C206.58 24.41 206.41 24.86 206.07 25.21C205.73 25.56 205.24 25.8 204.59 25.92C204.87 26.11 205.22 26.59 205.65 27.37C205.78 27.61 205.88 27.79 205.95 27.91C206.19 28.33 206.42 28.62 206.63 28.78C206.84 28.93 207.09 29.03 207.41 29.06V29.59C207.25 29.6 207.09 29.61 206.95 29.62C206.81 29.62 206.67 29.62 206.54 29.62C206.09 29.62 205.72 29.57 205.43 29.47C205.14 29.37 204.88 29.2 204.65 28.97C204.52 28.83 204.27 28.44 203.9 27.8C203.53 27.16 203.21 26.63 202.94 26.22H201.99V28.07L201.96 28.08Z" fill="white"/>
<path d="M212.99 22.19H212.18V28.01C212.18 28.37 212.28 28.62 212.47 28.76C212.66 28.91 212.99 28.98 213.45 28.98C214.45 28.98 215.24 28.67 215.82 28.05C216.4 27.43 216.69 26.59 216.69 25.53C216.69 24.47 216.36 23.66 215.72 23.07C215.07 22.47 214.16 22.18 213.01 22.18L212.99 22.19ZM209.32 28.97H209.45C209.79 28.97 210.05 28.9 210.2 28.76C210.35 28.62 210.43 28.39 210.43 28.07V23.2C210.43 22.88 210.35 22.65 210.2 22.51C210.05 22.37 209.8 22.3 209.45 22.3H209.32V21.76C210.12 21.71 210.83 21.67 211.46 21.64C212.09 21.62 212.64 21.6 213.13 21.6C214.07 21.6 214.86 21.67 215.48 21.8C216.11 21.94 216.63 22.15 217.04 22.45C217.52 22.78 217.89 23.21 218.15 23.73C218.41 24.25 218.54 24.83 218.54 25.45C218.54 26.07 218.41 26.65 218.15 27.18C217.89 27.71 217.5 28.16 216.99 28.55C216.54 28.89 216.04 29.14 215.5 29.29C214.96 29.44 214.26 29.52 213.41 29.52H209.32V28.97Z" fill="white"/>
<path d="M221.01 29.51V28.97H221.14C221.49 28.97 221.74 28.9 221.89 28.76C222.05 28.62 222.12 28.4 222.12 28.09V23.16C222.12 22.85 222.04 22.62 221.89 22.49C221.74 22.35 221.49 22.28 221.14 22.28H221.01V21.74H227.73L227.83 23.55H227.38C227.33 23.1 227.23 22.8 227.09 22.67C226.95 22.53 226.63 22.47 226.14 22.47H223.86V25.24H225.68C226.05 25.24 226.32 25.17 226.48 25.04C226.64 24.91 226.73 24.69 226.73 24.39V24.32H227.23V26.86H226.73V26.79C226.73 26.48 226.65 26.26 226.48 26.13C226.32 26 226.05 25.93 225.68 25.93H223.86V28.01C223.86 28.34 223.9 28.55 223.97 28.63C224.04 28.71 224.2 28.76 224.43 28.76H226.09C226.64 28.76 227.02 28.67 227.25 28.49C227.47 28.31 227.62 27.99 227.7 27.53H228.22L228.06 29.52H221.02L221.01 29.51Z" fill="white"/>
<path d="M232.47 28.07C232.47 28.39 232.55 28.62 232.7 28.75C232.85 28.89 233.11 28.96 233.45 28.96H233.58V29.5H230.51V28.96H230.64C230.99 28.96 231.24 28.89 231.39 28.75C231.54 28.61 231.62 28.38 231.62 28.07V22.52C231.5 22.44 231.38 22.38 231.26 22.34C231.14 22.3 231.01 22.28 230.88 22.28H230.82C230.82 22.28 230.77 22.28 230.76 22.28H230.69V21.74H233.21L238.23 26.92V23.18C238.23 22.86 238.15 22.64 238 22.5C237.85 22.36 237.59 22.29 237.25 22.29H237.12V21.75H240.21V22.29H240.08C239.73 22.29 239.47 22.36 239.32 22.5C239.17 22.64 239.09 22.87 239.09 23.18V29.56H238.36L232.46 23.48V28.08L232.47 28.07Z" fill="white"/>
<path d="M244.32 28.07C244.32 28.39 244.4 28.62 244.55 28.75C244.7 28.89 244.96 28.96 245.3 28.96H245.43V29.5H242.36V28.96H242.49C242.84 28.96 243.08 28.89 243.24 28.75C243.39 28.61 243.47 28.38 243.47 28.07V22.52C243.35 22.44 243.23 22.38 243.11 22.34C242.99 22.3 242.86 22.28 242.73 22.28C242.72 22.28 242.7 22.28 242.67 22.28C242.64 22.28 242.62 22.28 242.61 22.28C242.59 22.28 242.58 22.28 242.57 22.28C242.57 22.28 242.55 22.28 242.54 22.28V21.74H245.06L250.08 26.92V23.18C250.08 22.86 250 22.64 249.85 22.5C249.7 22.36 249.44 22.29 249.1 22.29H248.97V21.75H252.06V22.29H251.93C251.58 22.29 251.32 22.36 251.17 22.5C251.02 22.64 250.94 22.87 250.94 23.18V29.56H250.21L244.31 23.48V28.08L244.32 28.07Z" fill="white"/>
<path d="M254.17 29.51V28.97H254.3C254.65 28.97 254.9 28.9 255.05 28.76C255.2 28.62 255.28 28.4 255.28 28.09V23.16C255.28 22.85 255.2 22.62 255.05 22.49C254.9 22.35 254.64 22.28 254.3 22.28H254.17V21.74H260.89L260.99 23.55H260.54C260.49 23.1 260.39 22.8 260.25 22.67C260.1 22.53 259.79 22.47 259.3 22.47H257.02V25.24H258.84C259.21 25.24 259.48 25.17 259.64 25.04C259.8 24.91 259.88 24.69 259.88 24.39V24.32H260.38V26.86H259.88V26.79C259.88 26.48 259.8 26.26 259.64 26.13C259.47 26 259.21 25.93 258.84 25.93H257.02V28.01C257.02 28.34 257.06 28.55 257.13 28.63C257.21 28.71 257.36 28.76 257.6 28.76H259.26C259.81 28.76 260.19 28.67 260.42 28.49C260.64 28.31 260.79 27.99 260.86 27.53H261.38L261.22 29.52H254.18L254.17 29.51Z" fill="white"/>
</svg>
